<svg width="1088" height="1126" viewBox="0 0 1088 1126" fill="none" xmlns="http://www.w3.org/2000/svg">
<path d="M39.6291 776.49C39.5211 802.27 39.503 828.177 39.6291 853.958C26.4434 853.904 13.1857 853.994 0 853.958V776.49C13.1857 776.454 26.4434 776.544 39.6291 776.49Z" fill="#083005"/>
<path d="M698.914 1008.9C698.968 996.321 698.878 983.638 698.914 971.062H893.457C893.493 983.638 893.403 996.321 893.457 1008.9C880.271 1008.99 867.014 1008.84 853.828 1008.9V1046.73H738.543V1008.9C725.357 1008.82 712.1 1008.99 698.914 1008.9Z" fill="#9CEB7D"/>
<path d="M234.172 349.51C234.226 336.323 234.136 323.063 234.172 309.875H194.543V272.042H156.715V194.573H194.543V157.64L197.245 154.938H234.172V117.104H349.457V154.938H389.086V194.573H426.914V272.042H466.543V349.51H661.086V272.042H621.457V194.573H583.629V117.104H621.457V77.4688H661.086V39.6352H853.828V309.875H816C816.036 323.063 815.946 336.323 816 349.51C802.814 349.6 789.557 349.456 776.371 349.51V386.443L779.073 389.146H816V426.979H931.285V463.912L933.987 466.614H970.914V504.448H1008.74V619.75H933.987L931.285 622.453V659.386H893.457V697.219H234.172V659.386H156.715V622.453L154.013 619.75H117.086V504.448H156.715V466.614H234.172V426.979H272V349.51C259.427 349.474 246.745 349.564 234.172 349.51ZM698.914 542.282H621.457V621.552H698.914V542.282ZM853.828 542.282H816V621.552H853.828V542.282Z" fill="#9CEB7D"/>
<path d="M311.629 1086.36C311.467 1047.95 311.755 1009.47 311.629 971.062H504.371V1008.9H466.543C466.453 1034.69 466.651 1060.57 466.543 1086.36C414.953 1086.6 363.219 1086.6 311.629 1086.36Z" fill="#9CEB7D"/>
<path d="M39.6291 776.49C65.4241 776.381 91.2911 776.58 117.086 776.49V736.854H156.715V699.021H194.543V736.854H272V814.323H194.543V853.958H154.914V891.792H117.086V853.958C91.2911 853.868 65.4241 854.066 39.6291 853.958C39.503 828.177 39.5211 802.27 39.6291 776.49Z" fill="#9CEB7D"/>
<path d="M466.543 1086.36C466.489 1099.55 466.579 1112.81 466.543 1126H311.629C311.593 1112.81 311.683 1099.55 311.629 1086.36C363.219 1086.6 414.953 1086.6 466.543 1086.36Z" fill="#083005"/>
<path d="M234.172 349.51C246.745 349.564 259.427 349.474 272 349.51V426.979H234.172V466.614H156.715V504.448H117.086V619.75H154.013L156.715 622.453V659.386H234.172V697.219H893.457V659.386H931.285V622.453L933.987 619.75H1008.74V504.448H970.914V466.614H933.987L931.285 463.912V426.979H816V389.146H779.073L776.371 386.443V349.51C789.557 349.456 802.814 349.6 816 349.51C816.054 362.086 815.964 374.769 816 387.344H970.914V426.979H1010.54V504.448H1048.37V621.552H1010.54V659.386H970.914V697.219H1007.84L1010.54 699.922V736.854H1048.37V774.688C1050.68 773.697 1053.7 776.49 1054.68 776.49H1088V928.725L1085.3 931.427H970.914V968.36L968.212 971.062H931.285V1008.9C918.712 1008.95 906.03 1008.82 893.457 1008.9C893.403 996.321 893.493 983.638 893.457 971.062H698.914C698.878 983.638 698.968 996.321 698.914 1008.9C689.079 1008.82 672.434 1010.48 663.788 1008.9C661.771 1008.52 660.42 1007.98 659.285 1006.19V971.062H544V1048.53H506.172V1086.36C492.986 1086.4 479.729 1086.31 466.543 1086.36C466.651 1060.57 466.453 1034.69 466.543 1008.9H504.371V971.062H311.629C311.755 1009.47 311.467 1047.95 311.629 1086.36C298.443 1086.31 285.186 1086.4 272 1086.36V1048.53H234.172V971.062H119.788L117.086 968.36V931.427H80.1589L77.457 928.725V891.792H39.6291C39.5931 879.217 39.6832 866.534 39.6291 853.958C65.4241 854.066 91.2911 853.868 117.086 853.958V891.792H154.914V853.958H194.543V814.323H272V736.854H194.543V699.021H156.715V736.854H117.086V776.49C91.2911 776.58 65.4241 776.381 39.6291 776.49C39.6832 763.302 39.5931 750.042 39.6291 736.854H77.457V699.922L80.1589 697.219H117.086V659.386H77.457V467.515L80.1589 464.813H117.086V426.979H194.543V387.344H234.172C234.208 374.769 234.118 362.086 234.172 349.51ZM853.828 814.323C841.255 814.269 828.573 814.359 816 814.323V776.49H739.444L736.742 773.787V736.854H311.629V814.323H274.702L272 817.026V853.958H234.172V891.792H197.245L194.543 894.494V928.725L197.245 931.427H931.285V891.792H893.457V853.958H853.828C853.774 840.771 853.918 827.511 853.828 814.323C879.623 814.449 905.49 814.233 931.285 814.323V851.256L933.987 853.958H970.914V891.792H1048.37V814.323H1008.74V776.49H931.285V736.854H816V774.688L853.846 776.472C853.882 789.065 853.756 801.73 853.846 814.323H853.828Z" fill="#083005"/>
<path d="M698.914 1008.9C712.1 1008.99 725.357 1008.82 738.543 1008.9V1046.73H853.828V1008.9C867.014 1008.84 880.271 1008.99 893.457 1008.9C893.583 1034.69 893.367 1060.57 893.457 1086.36H698.914C699.004 1060.57 698.788 1034.69 698.914 1008.9Z" fill="#083005"/>
<path d="M234.172 349.51C212.106 349.402 181.97 352.051 161.128 349.6C158.499 349.294 156.499 349.384 154.914 346.808V311.677H119.788L117.086 308.974V154.938H154.914V118.005L157.616 115.302H194.543V77.4688H389.086V115.302H426.013L428.715 118.005V154.938H466.543V194.573H506.172V309.875H581.828V194.573H544V115.302H581.828V40.536L584.53 37.8336H621.457V0H853.828V37.8336H890.755L893.457 40.536V308.974L890.755 311.677H853.828V349.51C841.255 349.564 828.573 349.438 816 349.51C815.946 336.323 816.036 323.063 816 309.875H853.828V39.6352H661.086V77.4688H621.457V117.104H583.629V194.573H621.457V272.042H661.086V349.51H466.543V272.042H426.914V194.573H389.086V154.938H349.457V117.104H234.172V154.938H197.245L194.543 157.64V194.573H156.715V272.042H194.543V309.875H234.172C234.136 323.063 234.226 336.323 234.172 349.51Z" fill="#083005"/>
<path d="M853.828 814.323C853.918 827.511 853.774 840.771 853.828 853.958H893.457V891.792H931.285V931.427H197.245L194.543 928.725V894.494L197.245 891.792H234.172V853.958H272V817.026L274.702 814.323H311.629V736.854H736.742V773.787L739.444 776.49H816V814.323C828.573 814.359 841.255 814.269 853.828 814.323C853.756 801.73 853.882 789.065 853.828 776.472L815.982 774.688V736.854H931.267V776.49H1008.72V814.323H1048.35V891.792H970.896V853.958H933.969L931.267 851.256V814.323C905.472 814.233 879.605 814.449 853.81 814.323H853.828Z" fill="#9CEB7D"/>
<path d="M698.914 542.282H621.457V621.552H698.914V542.282Z" fill="#083005"/>
<path d="M853.828 542.282H816V621.552H853.828V542.282Z" fill="#083005"/>
</svg>
