<svg width="1164" height="1126" viewBox="0 0 1164 1126" fill="none" xmlns="http://www.w3.org/2000/svg">
<path d="M1125.67 652.012H1040.06V854.358H1125.67V652.012Z" fill="none"/>
<path d="M713.845 769.503V695.573H481.702V769.503H271.563V971.849H503.706V897.919H660.293V971.849H892.436V769.503H713.845Z" fill="none"/>
<path d="M1047.93 116.105C1047.9 90.5674 1047.95 64.9695 1047.93 39.4319H1009.6V0H814.69V39.4319H776.365V116.105H738.587L736.944 117.748V155.537H467.024L465.381 153.894V117.748L467.024 116.105H504.801V39.4319H467.024L465.381 37.7889V0H233.238V37.7889L231.595 39.4319H193.817C193.779 52.1925 193.872 65.0079 193.817 77.7685C181.061 77.8013 168.249 77.7466 155.492 77.7685V155.537C168.249 155.559 181.061 155.504 193.817 155.537C193.763 168.298 193.856 181.113 193.817 193.874H155.492V271.642H117.714L116.071 273.285V503.304L117.714 504.947H155.492V543.284H117.714L116.071 544.927V582.716H77.746V621.053H39.4205V697.178L37.778 698.821H0V854.358H193.817V816.569L195.46 814.926H231.595L233.238 816.569V1048.23C245.995 1048.25 258.807 1048.2 271.563 1048.23V1086.57H309.341L310.984 1088.21V1126H427.055C427.077 1112.87 427.023 1099.7 427.055 1086.57C452.953 1086.54 478.904 1086.59 504.801 1086.57V1009.89H543.127V932.126H620.873V1048.23C633.997 1048.25 647.17 1048.2 660.293 1048.23C660.293 1061 660.293 1073.81 660.288 1086.57C673.045 1086.6 685.862 1086.51 698.619 1086.57C698.652 1099.7 698.597 1112.87 698.619 1126H814.69V1088.21L816.333 1086.57H854.111V1048.23C866.873 1048.2 879.68 1048.25 892.442 1048.24C892.453 1022.33 892.409 996.368 892.436 970.463C815.079 970.775 737.656 970.233 660.293 970.463V892.695H504.801V970.463H271.563V816.569L273.206 814.926H892.436C892.393 866.752 892.497 918.637 892.436 970.463C905.56 970.408 918.733 970.501 931.857 970.463V854.358H1009.6V892.695H1125.67C1125.71 879.934 1125.62 867.119 1125.67 854.358C1099.78 854.467 1073.83 854.276 1047.93 854.358V738.801L1049.57 737.158H1086.25V660.484H1125.67C1125.47 725.087 1125.95 789.755 1125.67 854.358C1138.43 854.303 1151.24 854.396 1164 854.358V621.053H1125.67V582.716H1047.93V504.947H1086.25V467.159L1087.9 465.516H1125.67V349.41H1087.9L1086.25 347.768V271.642H1047.93C1047.89 258.881 1047.98 246.066 1047.93 233.305C1060.69 233.256 1073.5 233.344 1086.25 233.305V116.105C1073.5 116.067 1060.69 116.154 1047.93 116.105Z" fill="none"/>
<path d="M660.293 1048.23V1009.89H854.111V1048.23C840.987 1048.26 827.814 1048.21 814.69 1048.23V1086.57C776.02 1086.45 737.289 1086.73 698.619 1086.57C698.586 1073.8 698.635 1060.99 698.624 1048.23C685.862 1048.22 673.056 1048.26 660.293 1048.23Z" fill="none"/>
<path d="M193.817 77.7685C206.941 77.7356 220.114 77.7904 233.238 77.7685V39.4319H465.381V116.105H427.055V193.874H814.69V79.4115L816.333 77.7685H854.111V39.4319H970.182V77.7685H1007.96L1009.6 79.4115V116.105C1022.36 116.143 1035.17 116.056 1047.93 116.105C1047.97 155.154 1047.76 194.257 1047.93 233.305C1035.17 233.355 1022.36 233.267 1009.6 233.305V349.41H1047.93V465.516H1009.6V503.304L1007.96 504.947H970.182V543.284H504.801V504.947H195.46L193.817 503.304V465.516H155.492V349.41H193.817V233.305H233.238V155.537C220.114 155.515 206.941 155.57 193.817 155.537C193.927 129.632 193.708 103.673 193.817 77.7685ZM388.73 77.7685H310.984V116.105H271.563V193.874H349.309V155.537H388.73V77.7685ZM970.182 116.105H854.111V193.874H970.182V116.105ZM892.436 271.642H427.055V311.074H660.293V387.747H622.516L620.873 389.39V427.179H660.293V465.516H776.365V427.179H814.69V388.842H852.468L854.111 387.199V311.074H892.436V271.642Z" fill="none"/>
<path d="M271.563 1048.23V1009.89H465.381V1048.23H427.055C427.034 1060.99 427.088 1073.81 427.055 1086.57C388.385 1086.61 349.654 1086.54 310.984 1086.57V1048.23C297.86 1048.21 284.687 1048.26 271.563 1048.23Z" fill="none"/>
<path d="M1047.93 116.105C1060.69 116.154 1073.5 116.067 1086.25 116.105V233.305C1073.5 233.344 1060.69 233.256 1047.93 233.305C1047.76 194.257 1047.97 155.154 1047.93 116.105Z" fill="#083005"/>
<path d="M465.381 543.284V581.073L467.024 582.716H970.182V621.053H1047.93V698.821H1009.6V774.946L1007.96 776.589H233.238V737.158H193.817V582.716H233.238V543.284H465.381Z" fill="none"/>
<path d="M155.492 621.053V814.926H39.4205V737.158H77.746V660.484H115.524L117.167 658.841V621.053H155.492Z" fill="none"/>
<path d="M660.293 1048.23C673.056 1048.26 685.862 1048.22 698.624 1048.23C698.635 1060.99 698.586 1073.8 698.619 1086.57C685.862 1086.51 673.045 1086.6 660.288 1086.57C660.299 1073.81 660.288 1061 660.293 1048.23ZM814.69 1048.23V1086.57C776.02 1086.45 737.289 1086.73 698.619 1086.57C698.652 1099.7 698.597 1112.87 698.619 1126H814.69V1088.21L816.333 1086.57H854.111V1048.23C840.987 1048.26 827.814 1048.21 814.69 1048.23ZM271.563 1048.23C284.687 1048.26 297.86 1048.21 310.984 1048.23V1086.57C349.654 1086.54 388.385 1086.61 427.055 1086.57C427.023 1099.7 427.077 1112.87 427.055 1126H310.984V1088.21L309.341 1086.57H271.563V1048.23ZM193.817 155.537C206.941 155.57 220.114 155.515 233.238 155.537V233.305H193.817V349.41H155.492V465.516H193.817V503.304L195.46 504.947H504.801V543.284H970.182V504.947H1007.96L1009.6 503.304V465.516H1047.93V349.41H1009.6V233.305C1022.36 233.267 1035.17 233.355 1047.93 233.305C1047.98 246.066 1047.89 258.881 1047.93 271.642H1086.25V347.768L1087.9 349.41H1125.67V465.516H1087.9L1086.25 467.159V504.947H1047.93V582.716H1125.67V621.053H1164V854.358C1151.24 854.396 1138.43 854.303 1125.67 854.358C1125.95 789.755 1125.47 725.087 1125.67 660.484H1086.25V737.158H1049.57L1047.93 738.801V854.358C1073.83 854.276 1099.78 854.467 1125.67 854.358C1125.62 867.119 1125.71 879.934 1125.67 892.695H1009.6V854.358H931.857V970.463C918.733 970.501 905.56 970.408 892.436 970.463C892.497 918.637 892.393 866.752 892.436 814.926H273.206L271.563 816.569V970.463H504.801V892.695H660.293V970.463C737.656 970.233 815.079 970.775 892.436 970.463C892.409 996.368 892.453 1022.33 892.442 1048.24C879.68 1048.25 866.873 1048.2 854.111 1048.23V1009.89H660.293V1048.23C647.17 1048.2 633.997 1048.25 620.873 1048.23V932.126H543.127V1009.89H504.801V1086.57C478.904 1086.59 452.953 1086.54 427.055 1086.57C427.088 1073.81 427.034 1060.99 427.055 1048.23H465.381V1009.89H271.563V1048.23C258.807 1048.2 245.995 1048.25 233.238 1048.23V816.569L231.595 814.926H195.46L193.817 816.569V854.358H0V698.821H37.778L39.4205 697.178V621.053H77.746V582.716H116.071V544.927L117.714 543.284H155.492V504.947H117.714L116.071 503.304V273.285L117.714 271.642H155.492V193.874H193.817C193.856 181.113 193.763 168.298 193.817 155.537ZM465.381 543.284H233.238V582.716H193.817V737.158H233.238V776.589H1007.96L1009.6 774.946V698.821H1047.93V621.053H970.182V582.716H467.024L465.381 581.073V543.284ZM155.492 621.053H117.167V658.841L115.524 660.484H77.746V737.158H39.4205V814.926H155.492V621.053ZM193.817 77.7685C193.708 103.673 193.927 129.632 193.817 155.537C181.061 155.504 168.249 155.559 155.492 155.537V77.7685C168.249 77.7466 181.061 77.8013 193.817 77.7685ZM193.817 77.7685C193.872 65.0079 193.779 52.1925 193.817 39.4319H231.595L233.238 37.7889V0H465.381V37.7889L467.024 39.4319H504.801V116.105H467.024L465.381 117.748V153.894L467.024 155.537H736.944V117.748L738.587 116.105H776.365V39.4319H814.69V0H1009.6V39.4319H1047.93C1047.95 64.9695 1047.9 90.5674 1047.93 116.105C1035.17 116.056 1022.36 116.143 1009.6 116.105V79.4115L1007.96 77.7685H970.182V39.4319H854.111V77.7685H816.333L814.69 79.4115V193.874H427.055V116.105H465.381V39.4319H233.238V77.7685C220.114 77.7904 206.941 77.7356 193.817 77.7685ZM892.436 271.642V311.074H854.111V387.199L852.468 388.842H814.69V427.179H776.365V465.516H660.293V427.179H620.873V389.39L622.516 387.747H660.293V311.074H427.055V271.642H892.436ZM814.69 311.074H738.04V349.41H698.619V427.179H736.944V389.39L738.587 387.747H776.365V349.41H814.69V311.074ZM388.73 77.7685V155.537H349.309V193.874H271.563V116.105H310.984V77.7685H388.73ZM970.182 116.105V193.874H854.111V116.105H970.182Z" fill="#083005"/>
<path d="M814.69 311.074V349.41H776.365V387.747H738.587L736.944 389.39V427.179H698.619V349.41H738.04V311.074H814.69Z" fill="none"/>
</svg>