<svg xmlns="http://www.w3.org/2000/svg" viewBox="0 -0.5 32 32" shape-rendering="crispEdges">
<metadata>Made with Pixels to Svg https://codepen.io/shshaw/pen/XbxvNj</metadata>
<path stroke="#000000" d="M9 0h2M21 0h7M7 1h6M20 1h2M27 1h3M4 2h4M12 2h2M19 2h2M29 2h1M3 3h3M13 3h7M29 3h2M3 4h1M30 4h1M3 5h1M30 5h1M4 6h1M21 6h3M31 6h1M4 7h1M11 7h2M20 7h2M23 7h2M31 7h1M5 8h1M10 8h2M13 8h1M20 8h1M22 8h3M30 8h1M5 9h1M10 9h1M13 9h2M20 9h1M22 9h3M30 9h1M4 10h1M10 10h1M12 10h3M20 10h4M30 10h1M4 11h1M10 11h4M21 11h2M29 11h1M3 12h1M11 12h3M29 12h1M2 13h1M12 13h1M29 13h1M1 14h1M17 14h4M30 14h1M1 15h1M30 15h2M0 16h2M31 16h1M0 17h1M31 17h1M0 18h1M8 18h2M30 18h2M0 19h1M7 19h1M10 19h1M15 19h3M30 19h1M1 20h2M5 20h2M11 20h1M14 20h1M18 20h1M20 20h3M24 20h2M27 20h4M2 21h1M4 21h1M6 21h1M11 21h3M19 21h1M22 21h2M26 21h1M28 21h2M3 22h1M6 22h1M12 22h1M19 22h1M26 22h1M6 23h1M12 23h2M19 23h2M26 23h2M6 24h2M13 24h1M20 24h1M27 24h2M7 25h1M13 25h1M20 25h2M27 25h2M6 26h2M13 26h2M21 26h1M27 26h1M5 27h2M12 27h2M20 27h1M26 27h2M6 28h2M12 28h2M20 28h2M26 28h2M7 29h1M13 29h2M21 29h3M27 29h2M7 30h1M14 30h1M23 30h1M28 30h1M6 31h1M14 31h1M22 31h1M28 31h1" />
</svg>