<svg width="1000" height="1000" viewBox="0 0 1000 1000" fill="none" xmlns="http://www.w3.org/2000/svg">
<g clip-path="url(#clip0_48_4)">
<path d="M281.25 15.625H343.75ZM656.25 15.625H875ZM218.75 46.875H406.25ZM625 46.875H687.5ZM843.75 46.875H937.5ZM125 78.125H250ZM375 78.125H437.5ZM593.75 78.125H656.25ZM906.25 78.125H937.5ZM93.75 109.375H187.5ZM406.25 109.375H625ZM906.25 109.375H968.75ZM93.75 140.625H125ZM937.5 140.625H968.75ZM93.75 171.875H125ZM937.5 171.875H968.75ZM125 203.125H156.25ZM656.25 203.125H750ZM968.75 203.125H1000ZM125 234.375H156.25ZM343.75 234.375H406.25ZM625 234.375H687.5ZM718.75 234.375H781.25ZM968.75 234.375H1000ZM156.25 265.625H187.5ZM312.5 265.625H375ZM406.25 265.625H437.5ZM625 265.625H656.25ZM687.5 265.625H781.25ZM937.5 265.625H968.75ZM156.25 296.875H187.5ZM312.5 296.875H343.75ZM406.25 296.875H468.75ZM625 296.875H656.25ZM687.5 296.875H781.25ZM937.5 296.875H968.75ZM125 328.125H156.25ZM312.5 328.125H343.75ZM375 328.125H468.75ZM625 328.125H750ZM937.5 328.125H968.75ZM125 359.375H156.25ZM312.5 359.375H437.5ZM656.25 359.375H718.75ZM906.25 359.375H937.5ZM93.75 390.625H125ZM343.75 390.625H437.5ZM906.25 390.625H937.5ZM62.5 421.875H93.75ZM375 421.875H406.25ZM906.25 421.875H937.5ZM31.25 453.125H62.5ZM531.25 453.125H656.25ZM937.5 453.125H968.75ZM31.25 484.375H62.5ZM937.5 484.375H1000ZM0 515.625H62.5ZM968.75 515.625H1000ZM0 546.875H31.25ZM968.75 546.875H1000ZM0 578.125H31.25ZM250 578.125H312.5ZM937.5 578.125H1000ZM0 609.375H31.25ZM218.75 609.375H250ZM312.5 609.375H343.75ZM468.75 609.375H562.5ZM937.5 609.375H968.75ZM31.25 640.625H93.75ZM156.25 640.625H218.75ZM343.75 640.625H375ZM437.5 640.625H468.75ZM562.5 640.625H593.75ZM625 640.625H718.75ZM750 640.625H812.5ZM843.75 640.625H968.75ZM62.5 671.875H93.75ZM125 671.875H156.25ZM187.5 671.875H218.75ZM343.75 671.875H437.5ZM593.75 671.875H625ZM687.5 671.875H750ZM812.5 671.875H843.75ZM875 671.875H937.5ZM93.75 703.125H125ZM187.5 703.125H218.75ZM375 703.125H406.25ZM593.75 703.125H625ZM812.5 703.125H843.75ZM187.5 734.375H218.75ZM375 734.375H437.5ZM593.75 734.375H656.25ZM812.5 734.375H875ZM187.5 765.625H250ZM406.25 765.625H437.5ZM625 765.625H656.25ZM843.75 765.625H906.25ZM218.75 796.875H250ZM406.25 796.875H437.5ZM625 796.875H687.5ZM843.75 796.875H906.25ZM187.5 828.125H250ZM406.25 828.125H468.75ZM656.25 828.125H687.5ZM843.75 828.125H875ZM156.25 859.375H218.75ZM375 859.375H437.5ZM625 859.375H656.25ZM812.5 859.375H875ZM187.5 890.625H250ZM375 890.625H437.5ZM625 890.625H687.5ZM812.5 890.625H875ZM218.75 921.875H250ZM406.25 921.875H468.75ZM656.25 921.875H750ZM843.75 921.875H906.25ZM218.75 953.125H250ZM437.5 953.125H468.75ZM718.75 953.125H750ZM875 953.125H906.25ZM187.5 984.375H218.75ZM437.5 984.375H468.75ZM687.5 984.375H718.75ZM875 984.375H906.25Z" fill="#083005"/>
<path d="M281.25 15.625H343.75M656.25 15.625H875M218.75 46.875H406.25M625 46.875H687.5M843.75 46.875H937.5M125 78.125H250M375 78.125H437.5M593.75 78.125H656.25M906.25 78.125H937.5M93.75 109.375H187.5M406.25 109.375H625M906.25 109.375H968.75M93.75 140.625H125M937.5 140.625H968.75M93.75 171.875H125M937.5 171.875H968.75M125 203.125H156.25M656.25 203.125H750M968.75 203.125H1000M125 234.375H156.25M343.75 234.375H406.25M625 234.375H687.5M718.75 234.375H781.25M968.75 234.375H1000M156.25 265.625H187.5M312.5 265.625H375M406.25 265.625H437.5M625 265.625H656.25M687.5 265.625H781.25M937.5 265.625H968.75M156.25 296.875H187.5M312.5 296.875H343.75M406.25 296.875H468.75M625 296.875H656.25M687.5 296.875H781.25M937.5 296.875H968.75M125 328.125H156.25M312.5 328.125H343.75M375 328.125H468.75M625 328.125H750M937.5 328.125H968.75M125 359.375H156.25M312.5 359.375H437.5M656.25 359.375H718.75M906.25 359.375H937.5M93.75 390.625H125M343.75 390.625H437.5M906.25 390.625H937.5M62.5 421.875H93.75M375 421.875H406.25M906.25 421.875H937.5M31.25 453.125H62.5M531.25 453.125H656.25M937.5 453.125H968.75M31.25 484.375H62.5M937.5 484.375H1000M0 515.625H62.5M968.75 515.625H1000M0 546.875H31.25M968.75 546.875H1000M0 578.125H31.25M250 578.125H312.5M937.5 578.125H1000M0 609.375H31.25M218.75 609.375H250M312.5 609.375H343.75M468.75 609.375H562.5M937.5 609.375H968.75M31.25 640.625H93.75M156.25 640.625H218.75M343.75 640.625H375M437.5 640.625H468.75M562.5 640.625H593.75M625 640.625H718.75M750 640.625H812.5M843.75 640.625H968.75M62.5 671.875H93.75M125 671.875H156.25M187.5 671.875H218.75M343.75 671.875H437.5M593.75 671.875H625M687.5 671.875H750M812.5 671.875H843.75M875 671.875H937.5M93.75 703.125H125M187.5 703.125H218.75M375 703.125H406.25M593.75 703.125H625M812.5 703.125H843.75M187.5 734.375H218.75M375 734.375H437.5M593.75 734.375H656.25M812.5 734.375H875M187.5 765.625H250M406.25 765.625H437.5M625 765.625H656.25M843.75 765.625H906.25M218.75 796.875H250M406.25 796.875H437.5M625 796.875H687.5M843.75 796.875H906.25M187.5 828.125H250M406.25 828.125H468.75M656.25 828.125H687.5M843.75 828.125H875M156.25 859.375H218.75M375 859.375H437.5M625 859.375H656.25M812.5 859.375H875M187.5 890.625H250M375 890.625H437.5M625 890.625H687.5M812.5 890.625H875M218.75 921.875H250M406.25 921.875H468.75M656.25 921.875H750M843.75 921.875H906.25M218.75 953.125H250M437.5 953.125H468.75M718.75 953.125H750M875 953.125H906.25M187.5 984.375H218.75M437.5 984.375H468.75M687.5 984.375H718.75M875 984.375H906.25" stroke="#083005" stroke-width="31.25"/>
</g>
<defs>
<clipPath id="clip0_48_4">
<rect width="1000" height="1000" fill="none"/>
</clipPath>
</defs>
</svg>
