<svg width="1126" height="1126" viewBox="0 0 1126 1126" fill="none" xmlns="http://www.w3.org/2000/svg">
<path d="M976.331 38.2875H1048.55L1051.17 40.898V74.8346H1087.71V149.669H1123.39L1126 152.28V301.079H1087.71V375.913H1051.17V411.59L1048.55 414.201H1012.88V450.748H976.331V525.583H938.043V563.87H899.756V600.417H863.209V636.964H938.043V600.417H1087.71V636.964H1123.39L1126 639.575V750.087H1087.71V788.374H1051.17V824.921H1012.88V863.209H1051.17V899.756H1087.71V976.331H1012.88V1048.55L1010.27 1051.17H976.331V1087.71H938.043V1126H675.252V1087.71H636.964V1051.17H600.417V976.331H525.583V1051.17H489.036V1087.71H414.201V1123.39L411.59 1126H340.236L337.626 1123.39V1087.71H262.791V1051.17H226.244V976.331H115.733L113.122 973.72V899.756H38.2875V824.921H0V750.087H38.2875V711.799H74.8346V677.862L77.4451 675.252H226.244V711.799H301.079V677.862L298.468 675.252H262.791V563.87H226.244V489.036H77.4451L74.8346 486.425V450.748H38.2875V375.913H0V262.791H38.2875V187.957H74.8346V152.28L77.4451 149.669H113.122V113.122H187.957V77.4451L190.567 74.8346H336.756L339.366 77.4451V113.122H375.913V149.669H411.59L414.201 152.28V187.957H450.748V226.244H600.417V187.957H711.799V115.733L714.41 113.122H750.087V38.2875H824.921V0H973.72L976.331 2.61051V38.2875ZM750.087 262.791H525.583V301.079H414.201V336.756L411.59 339.366H375.913V375.913H339.366V448.138L336.756 450.748H301.079V600.417H337.626V636.964H711.799V600.417H788.374V562.13H863.209V525.583H899.756V487.295H938.043V375.913H899.756V339.366H863.209V301.079H750.087V262.791ZM788.374 713.539V677.862L785.764 675.252H600.417V713.539H337.626V788.374H301.079V824.921H265.402L262.791 827.532V863.209H226.244V899.756H190.567L187.957 902.366V935.433L190.567 938.043H1010.27L1012.88 935.433V899.756H974.59V863.209H938.043V824.921H899.756V788.374H863.209V752.697L860.598 750.087H824.921V713.539H788.374Z" fill="#083005"/>
<path d="M563.87 375.913V486.425L561.26 489.036H525.583V525.583H412.461V489.036H375.913V450.748H412.461V412.461H487.295V375.913H563.87Z" fill="#083005"/>
<path d="M788.374 337.626V375.913H824.921V450.748H750.087V489.036H677.862L675.252 486.425V450.748H639.575L636.964 448.138V415.071L639.575 412.461H675.252V375.913H711.799V340.236L714.41 337.626H788.374Z" fill="#083005"/>
</svg>
